<mxfile host="app.diagrams.net" modified="2023-09-12T02:00:55.478Z" agent="Mozilla/5.0 (Windows NT 10.0; Win64; x64) AppleWebKit/537.36 (KHTML, like Gecko) Chrome/116.0.0.0 Safari/537.36" etag="HiIGltWvIhYhJwksKgjP" version="21.7.4" type="github">
  <diagram name="Page-1" id="QDOo9a7gp7LDctr0ILgN">
    <mxGraphModel dx="2868" dy="1564" grid="1" gridSize="10" guides="1" tooltips="1" connect="1" arrows="1" fold="1" page="1" pageScale="1" pageWidth="850" pageHeight="1100" math="0" shadow="0">
      <root>
        <mxCell id="0" />
        <mxCell id="1" parent="0" />
        <mxCell id="9n3HUmwrAX6AzF5zyUBz-8" value="Actor" style="shape=umlActor;verticalLabelPosition=bottom;verticalAlign=top;html=1;outlineConnect=0;" vertex="1" parent="1">
          <mxGeometry x="670" y="650" width="160" height="320" as="geometry" />
        </mxCell>
        <mxCell id="9n3HUmwrAX6AzF5zyUBz-9" value="Actor" style="shape=umlActor;verticalLabelPosition=bottom;verticalAlign=top;html=1;outlineConnect=0;" vertex="1" parent="1">
          <mxGeometry x="60" y="650" width="160" height="320" as="geometry" />
        </mxCell>
        <mxCell id="9n3HUmwrAX6AzF5zyUBz-12" value="" style="rounded=0;whiteSpace=wrap;html=1;" vertex="1" parent="1">
          <mxGeometry x="280" y="460" width="350" height="520" as="geometry" />
        </mxCell>
        <mxCell id="9n3HUmwrAX6AzF5zyUBz-13" value="&lt;p style=&quot;line-height: 120%; font-size: 20px;&quot;&gt;loncat&lt;/p&gt;" style="ellipse;whiteSpace=wrap;html=1;" vertex="1" parent="1">
          <mxGeometry x="364.64" y="550" width="180.71" height="110" as="geometry" />
        </mxCell>
        <mxCell id="9n3HUmwrAX6AzF5zyUBz-18" value="&lt;font style=&quot;font-size: 20px;&quot;&gt;&lt;b&gt;balap karung racing&lt;/b&gt;&lt;/font&gt;" style="text;html=1;strokeColor=none;fillColor=none;align=center;verticalAlign=middle;whiteSpace=wrap;rounded=0;" vertex="1" parent="1">
          <mxGeometry x="357.5" y="480" width="195.01" height="30" as="geometry" />
        </mxCell>
        <mxCell id="9n3HUmwrAX6AzF5zyUBz-19" value="&lt;p style=&quot;line-height: 120%; font-size: 20px;&quot;&gt;maju&lt;/p&gt;" style="ellipse;whiteSpace=wrap;html=1;" vertex="1" parent="1">
          <mxGeometry x="364.64" y="700" width="180.71" height="110" as="geometry" />
        </mxCell>
        <mxCell id="9n3HUmwrAX6AzF5zyUBz-20" value="&lt;p style=&quot;line-height: 120%; font-size: 20px;&quot;&gt;cek finish&lt;/p&gt;" style="ellipse;whiteSpace=wrap;html=1;" vertex="1" parent="1">
          <mxGeometry x="364.64" y="830" width="180.71" height="110" as="geometry" />
        </mxCell>
        <mxCell id="9n3HUmwrAX6AzF5zyUBz-21" value="" style="endArrow=classic;html=1;rounded=0;exitX=1;exitY=0.3333333333333333;exitDx=0;exitDy=0;exitPerimeter=0;entryX=0;entryY=0.5;entryDx=0;entryDy=0;" edge="1" parent="1" source="9n3HUmwrAX6AzF5zyUBz-9" target="9n3HUmwrAX6AzF5zyUBz-13">
          <mxGeometry width="50" height="50" relative="1" as="geometry">
            <mxPoint x="450" y="680" as="sourcePoint" />
            <mxPoint x="500" y="630" as="targetPoint" />
            <Array as="points">
              <mxPoint x="220" y="605" />
            </Array>
          </mxGeometry>
        </mxCell>
        <mxCell id="9n3HUmwrAX6AzF5zyUBz-23" value="" style="endArrow=classic;html=1;rounded=0;exitX=1;exitY=0.3333333333333333;exitDx=0;exitDy=0;exitPerimeter=0;entryX=0;entryY=0.5;entryDx=0;entryDy=0;" edge="1" parent="1" source="9n3HUmwrAX6AzF5zyUBz-9" target="9n3HUmwrAX6AzF5zyUBz-19">
          <mxGeometry width="50" height="50" relative="1" as="geometry">
            <mxPoint x="240" y="690" as="sourcePoint" />
            <mxPoint x="290" y="640" as="targetPoint" />
          </mxGeometry>
        </mxCell>
        <mxCell id="9n3HUmwrAX6AzF5zyUBz-24" value="" style="endArrow=classic;html=1;rounded=0;exitX=1;exitY=0.3333333333333333;exitDx=0;exitDy=0;exitPerimeter=0;entryX=0;entryY=0.5;entryDx=0;entryDy=0;" edge="1" parent="1" source="9n3HUmwrAX6AzF5zyUBz-9" target="9n3HUmwrAX6AzF5zyUBz-20">
          <mxGeometry width="50" height="50" relative="1" as="geometry">
            <mxPoint x="250" y="700" as="sourcePoint" />
            <mxPoint x="300" y="650" as="targetPoint" />
            <Array as="points">
              <mxPoint x="220" y="880" />
            </Array>
          </mxGeometry>
        </mxCell>
        <mxCell id="9n3HUmwrAX6AzF5zyUBz-25" value="" style="endArrow=classic;html=1;rounded=0;exitX=0;exitY=0.3333333333333333;exitDx=0;exitDy=0;exitPerimeter=0;entryX=1;entryY=0.5;entryDx=0;entryDy=0;" edge="1" parent="1" source="9n3HUmwrAX6AzF5zyUBz-8" target="9n3HUmwrAX6AzF5zyUBz-20">
          <mxGeometry width="50" height="50" relative="1" as="geometry">
            <mxPoint x="260" y="710" as="sourcePoint" />
            <mxPoint x="310" y="660" as="targetPoint" />
            <Array as="points">
              <mxPoint x="670" y="885" />
            </Array>
          </mxGeometry>
        </mxCell>
      </root>
    </mxGraphModel>
  </diagram>
</mxfile>
